<!-- <svg xmlns="http://www.w3.org/2000/svg" viewBox="0 0 1440 320">
    <path fill="#0099ff" fill-opacity="1" d="M0,0L60,53.3C120,107,240,213,360,261.3C480,309,600,299,720,288C840,277,960,267,1080,272C1200,277,1320,299,1380,309.3L1440,320L1440,320L1380,320C1320,320,1200,320,1080,320C960,320,840,320,720,320C600,320,480,320,360,320C240,320,120,320,60,320L0,320Z"></path>
</svg> -->
<!-- <svg xmlns="http://www.w3.org/2000/svg" viewBox="0 0 1440 320">
    <path fill="#0099ff" fill-opacity="1" d="M0,0L48,10.7C96,21,192,43,288,90.7C384,139,480,213,576,256C672,299,768,309,864,288C960,267,1056,213,1152,213.3C1248,213,1344,267,1392,293.3L1440,320L1440,320L1392,320C1344,320,1248,320,1152,320C1056,320,960,320,864,320C768,320,672,320,576,320C480,320,384,320,288,320C192,320,96,320,48,320L0,320Z"></path>
</svg> -->
<!-- <svg xmlns="http://www.w3.org/2000/svg" viewBox="0 0 1440 320"><path fill="#0099ff" fill-opacity="1" d="M0,0L40,37.3C80,75,160,149,240,202.7C320,256,400,288,480,277.3C560,267,640,213,720,160C800,107,880,53,960,32C1040,11,1120,21,1200,21.3C1280,21,1360,11,1400,5.3L1440,0L1440,320L1400,320C1360,320,1280,320,1200,320C1120,320,1040,320,960,320C880,320,800,320,720,320C640,320,560,320,480,320C400,320,320,320,240,320C160,320,80,320,40,320L0,320Z"></path></svg>
 -->

 <svg xmlns="http://www.w3.org/2000/svg" viewBox="0 0 1440 320"><path fill="#0099ff" fill-opacity="1" d="M0,0L40,10.7C80,21,160,43,240,48C320,53,400,43,480,69.3C560,96,640,160,720,197.3C800,235,880,245,960,256C1040,267,1120,277,1200,272C1280,267,1360,245,1400,234.7L1440,224L1440,320L1400,320C1360,320,1280,320,1200,320C1120,320,1040,320,960,320C880,320,800,320,720,320C640,320,560,320,480,320C400,320,320,320,240,320C160,320,80,320,40,320L0,320Z"></path></svg>